[Header]
FileType HTR
DataType HTRS
FileVersion 1
NumSegments 28
NumFrames 4
DataFrameRate 24
EulerRotationOrder ZYX
CalibrationUnits mm
RotationUnits Degrees
GlobalAxisofGravity Y
BoneLengthAxis Y
ScaleFactor 1.0
[SegmentNames&Hierarchy]
waist	GLOBAL
chest	waist
head	chest
joint2	chest
right_shoulder1	joint2
right_elbow1	right_shoulder1
right_wrist1	right_elbow1
right_hand1	right_wrist1
right_finger3	right_hand1
right_finger4	right_hand1
right_finger5	right_hand1
joint3	chest
right_shoulder2	joint3
right_elbow2	right_shoulder2
right_wrist2	right_elbow2
right_hand2	right_wrist2
right_finger6	right_hand2
right_finger7	right_hand2
right_finger8	right_hand2
Center_pelvis	waist
left_pelvs	Center_pelvis
left_leg	left_pelvs
left_knee	left_leg
left_foot	left_knee
right_pelvis	Center_pelvis
right_leg	right_pelvis
right_knee	right_leg
right_foot	right_knee
[BasePosition]
waist	0	0	0	179.9999991	0	91.33221985	1
chest	0	0	0	-2.307808268e-010	-1.984983424e-008	1.332219854	1
head	0	0	0	180	-1.481061187e-024	90	1
joint2	0	0	0	4.615476202e-010	-1.707085745e-006	90	1
right_shoulder1	0	0	0	1.916575325e-008	-1.983803253e-008	-88.02506599	1
right_elbow1	0	0	0	-180	-1.948815659e-008	-12.92899665	1
right_wrist1	0	0	0	3.256551172e-010	1.942478841e-008	1.920938916	1
right_hand1	0	0	0	136.2194085	85.17676588	-133.4832578	1
right_finger3	0	0	0	154.4596717	79.84057755	147.6247455	1
right_finger4	0	0	0	154.4596717	79.84057755	147.6247455	1
right_finger5	0	0	0	154.4596717	79.84057755	147.6247455	1
joint3	0	0	0	-180	-1.89575832e-022	90	1
right_shoulder2	0	0	0	6.774897105e-015	-7.012540931e-015	-88.02506599	1
right_elbow2	0	0	0	-180	-6.888863384e-015	-12.92899665	1
right_wrist2	0	0	0	-1.240805042e-012	-7.401196581e-011	1.920938916	1
right_hand2	0	0	0	136.2194085	85.17676588	-133.4832578	1
right_finger6	0	0	0	154.4596717	79.84057755	147.6247455	1
right_finger7	0	0	0	154.4596717	79.84057755	147.6247455	1
right_finger8	0	0	0	154.4596717	79.84057755	147.6247455	1
Center_pelvis	0	0	0	-180	-8.537716493e-007	89.87586122	1
left_pelvs	0	0	0	0	0	-1.456358634	1
left_leg	0	0	0	179.9999991	0	88.69804733	1
left_knee	0	0	0	-180	-7.863991589e-009	-2.076172838	1
left_foot	0	0	0	179.9999985	-3.055580289e-010	-90.77422016	1
right_pelvis	0	0	0	0	0	-2.39554958	1
right_leg	0	0	0	0	0	-87.75885638	1
right_knee	0	0	0	179.9999991	3.702652968e-022	-2.076172838	1
right_foot	0	0	0	180	-7.405305937e-025	-90.77422016	1
[waist]
6	0.2494212389	-3.152148962	0	-5.524217857e-017	-9.965787888	-2.166649531e-016	1.0
7	0.2494212389	-3.152148962	0	-4.76330839e-018	-12.40002537	1.430557518e-016	1.0
8	0.2494212389	-3.152148962	0	3.406577917e-017	-13.09910393	3.668650043e-016	1.0
9	0.2494212389	-3.152148962	0	6.711705109e-017	-10.29881763	3.74346211e-016	1.0
[chest]
6	26.90063095	-5.105234635e-008	3.426064014	23.88708878	8.962533951	-0.0505040139	1.0
7	26.90063095	-5.105234635e-008	3.426064014	29.12849045	8.999224663	-0.06670933962	1.0
8	26.90063095	-5.105234635e-008	3.426064014	31.30317688	9.037050247	-0.08341606706	1.0
9	26.90063095	-5.105234635e-008	3.426064014	29.19040489	9.075884819	-0.1005683839	1.0
[head]
6	20.23308182	-0.2504503131	-1.893472433	22.14242935	-16.63659477	-2.481672287	1.0
7	20.22148514	-0.2618032396	-1.837880373	21.46648026	-16.19583511	-2.429328442	1.0
8	20.20862198	-0.2743981481	-1.776207209	20.71658707	-15.70685959	-2.371258974	1.0
9	20.19447517	-0.2882474959	-1.708391309	19.89200401	-15.16918182	-2.30740571	1.0
[joint2]
6	-1.657010078	17.01290512	0.01287616603	-18.55849457	-11.92790604	14.09929848	1.0
7	-1.657010078	17.01290512	0.01287616603	-19.09776497	-12.94554138	17.1057682	1.0
8	-1.657010078	17.01290512	0.01287616603	-19.32151031	-15.37937546	18.35316658	1.0
9	-1.657010078	17.01290512	0.01287616603	-17.7480278	-21.76742554	10.72892761	1.0
[right_shoulder1]
6	14.91590023	0.6211000085	0.9477797747	1.351597309	-2.869704485	-3.750360727	1.0
7	14.91590023	0.6211000085	0.9477797747	1.76467824	-2.698906898	-4.689214706	1.0
8	14.91590023	0.6211000085	0.9477797747	2.188114882	-2.303469896	-6.93462944	1.0
9	14.91590023	0.6211000085	0.9477797747	2.642748117	-0.8467794657	-11.42136288	1.0
[right_elbow1]
6	-13.64346027	1.083028078	-0.5017899871	-9.845550537	33.02347565	-17.93486595	1.0
7	-13.64346027	1.083028078	-0.5017899871	-12.01023293	32.64501572	-21.87232208	1.0
8	-13.64346027	1.083028078	-0.5017899871	-13.7788496	31.73987389	-25.0146389	1.0
9	-13.64346027	1.083028078	-0.5017899871	-15.15443039	28.63030624	-27.29119682	1.0
[right_wrist1]
6	-11.07325459	0.004849368241	0.6145500541	-3.015764713	25.1654377	-14.29340076	1.0
7	-11.07325459	0.004849368241	0.6145500541	-3.658832073	28.41496086	-17.341259	1.0
8	-11.07325459	0.004849368241	0.6145500541	-3.925644398	29.76320839	-18.60583115	1.0
9	-11.07325459	0.004849368241	0.6145500541	-3.476109982	27.21811295	-16.40123177	1.0
[right_hand1]
6	-8.785093307	0.04701882228	0.1882400364	18.67463493	22.25030136	35.34314728	1.0
7	-8.785093307	0.04701882228	0.1882400364	17.82165337	21.52626419	37.10720444	1.0
8	-8.785093307	0.04701882228	0.1882400364	17.46774673	21.22585869	37.83911896	1.0
9	-8.785093307	0.04701882228	0.1882400364	18.27120209	21.5432415	37.31217575	1.0
[right_finger3]
6	10.07661057	3.347557783	-1.489186764	-84.30285645	-3.606470108	86.13555145	1.0
7	10.07661057	3.347557783	-1.489186764	-84.2756958	-2.233919382	86.27903748	1.0
8	10.07661057	3.347557783	-1.489186764	-84.24769592	-0.8189003468	86.42696381	1.0
9	10.07661057	3.347557783	-1.489186764	-84.21894836	0.6338593364	86.57883453	1.0
[right_finger4]
6	-1.201135993	3.376283169	11.27149582	-191.4251404	14.92671967	119.0148468	1.0
7	-1.201135993	3.376283169	11.27149582	-191.7105865	14.55812073	117.5988159	1.0
8	-1.201135993	3.376283169	11.27149582	-192.0048523	14.17811584	116.1389771	1.0
9	-1.201135993	3.376283169	11.27149582	-192.3069763	13.78797626	114.6401978	1.0
[right_finger5]
6	-6.853637218	4.493112087	-5.936321735	32.73274994	9.780947685	70.67657471	1.0
7	-6.853637218	4.493112087	-5.936321735	32.7694931	8.987345695	71.85694122	1.0
8	-6.853637218	4.493112087	-5.936321735	32.80737305	8.169190407	73.07383728	1.0
9	-6.853637218	4.493112087	-5.936321735	32.84626389	7.329212666	74.32318878	1.0
[joint3]
6	-1.657010078	-17.01289368	0.01287565939	-57.88469315	11.24808121	0.2693276107	1.0
7	-1.657010078	-17.01289368	0.01287565939	-56.7375412	10.86906528	0.3770325482	1.0
8	-1.657010078	-17.01289368	0.01287565939	-55.48104477	9.998832703	0.6243273616	1.0
9	-1.657010078	-17.01289368	0.01287565939	-54.12538528	6.370150089	6.730386734	1.0
[right_shoulder2]
6	-14.91590023	-0.6211000085	-0.9477797747	1.857256055	-23.72344971	-4.864217758	1.0
7	-14.91590023	-0.6211000085	-0.9477797747	1.893170118	-23.6375351	-5.070260048	1.0
8	-14.91590023	-0.6211000085	-0.9477797747	1.975630403	-23.44026756	-5.543340206	1.0
9	-14.91590023	-0.6211000085	-0.9477797747	5.028292179	-21.12877846	-15.61532402	1.0
[right_elbow2]
6	13.64346027	-1.083028078	0.5017899871	0.3873392344	1.60130465	-24.0104351	1.0
7	13.64346027	-1.083028078	0.5017899871	0.5008482933	2.11520195	-23.5361824	1.0
8	13.64346027	-1.083028078	0.5017899871	0.5488791466	2.645535469	-23.33550453	1.0
9	13.64346027	-1.083028078	0.5017899871	0.3077321649	2.980567217	-26.63047791	1.0
[right_wrist2]
6	11.07325459	-0.004849368241	-0.6145500541	-6.838321976e-017	1.087146521	-22.95478058	1.0
7	11.07325459	-0.004849368241	-0.6145500541	-8.677779753e-017	1.435981274	-22.95478058	1.0
8	11.07325459	-0.004849368241	-0.6145500541	-1.021973441e-016	1.795609474	-22.95478058	1.0
9	11.07325459	-0.004849368241	-0.6145500541	-1.165288239e-016	2.022607565	-22.95478058	1.0
[right_hand2]
6	8.785093307	-0.04701882228	-0.1882400364	17.96481705	27.7415657	14.66366768	1.0
7	8.785093307	-0.04701882228	-0.1882400364	17.60358429	27.59494209	15.07679558	1.0
8	8.785093307	-0.04701882228	-0.1882400364	17.23117256	27.44378281	15.50270653	1.0
9	8.785093307	-0.04701882228	-0.1882400364	16.76800346	27.33246613	15.77154255	1.0
[right_finger6]
6	-10.07661057	-3.347557783	1.489186764	-83.65452576	24.18587875	89.0683136	1.0
7	-10.07661057	-3.347557783	1.489186764	-83.67552185	22.3788414	88.87896729	1.0
8	-10.07661057	-3.347557783	1.489186764	-83.69715881	20.51589012	88.68374634	1.0
9	-10.07661057	-3.347557783	1.489186764	-83.72407532	19.33999062	88.56053162	1.0
[right_finger7]
6	1.201135993	-3.376283169	-11.27149582	-195.0083618	11.3492775	103.8285446	1.0
7	1.201135993	-3.376283169	-11.27149582	-194.6517029	11.6326046	105.228302	1.0
8	1.201135993	-3.376283169	-11.27149582	-194.2839966	11.92469692	106.6713638	1.0
9	1.201135993	-3.376283169	-11.27149582	-194.0519104	12.23792458	107.582222	1.0
[right_finger8]
6	6.853637218	-4.493112087	5.936321735	34.02177429	-3.261759043	90.03687286	1.0
7	6.853637218	-4.493112087	5.936321735	33.9538765	-2.577144146	89.01750183	1.0
8	6.853637218	-4.493112087	5.936321735	33.88387299	-1.871346831	87.96659851	1.0
9	6.853637218	-4.493112087	5.936321735	33.83968735	-1.4258461	87.3032608	1.0
[Center_pelvis]
6	-5.616972446	-0.3766000271	2.04698658	-17.10040665	-5.589047432	-11.44689274	1.0
7	-5.616972446	-0.3766000271	2.04698658	-11.6603508	-6.272165775	-12.8713398	1.0
8	-5.616972446	-0.3766000271	2.04698658	-10.0980444	-6.468347549	-13.28041935	1.0
9	-5.616972446	-0.3766000271	2.04698658	-14.38881969	-4.983129025	-10.56858158	1.0
[left_pelvs]
6	11.08986378	-0.01586683653	-0.09214995801	-13.75041294	2.560648203	17.16459656	1.0
7	11.08986378	-0.01586683653	-0.09214995801	-18.15501785	3.891205072	20.06821632	1.0
8	11.08986378	-0.01586683653	-0.09214995801	-19.41995811	4.273321629	20.90209579	1.0
9	11.08986378	-0.01586683653	-0.09214995801	-9.569124222	2.622489691	18.13077545	1.0
[left_leg]
6	8.450808053e-008	-5.682914734	0.3641465604	0	-30.53152657	0	1.0
7	8.450808053e-008	-5.682914734	0.3641465604	0	-32.08695221	0	1.0
8	8.450808053e-008	-5.682914734	0.3641465604	0	-32.53364563	0	1.0
9	8.450808053e-008	-5.682914734	0.3641465604	0	-26.05527878	0	1.0
[left_knee]
6	-10.69747543	0.03457061574	-6.811455844e-009	0	-44.85220337	0	1.0
7	-10.69747543	0.03457061574	-6.811455844e-009	0	-32.75893784	0	1.0
8	-10.69747543	0.03457061574	-6.811455844e-009	0	-29.28592491	0	1.0
9	-10.69747543	0.03457061574	-6.811455844e-009	2.664591551	-34.24551773	0	1.0
[left_foot]
6	-14.54718971	-0.01193539705	1.933258442e-009	-18.62080193	0	0	1.0
7	-14.54718971	-0.01193539705	1.933258442e-009	-12.17308903	0	0	1.0
8	-14.54718971	-0.01193539705	1.933258442e-009	-10.32139778	0	0	1.0
9	-14.54718971	-0.01193539705	1.933258442e-009	-13.27685642	0	0	1.0
[right_pelvis]
6	-10.5868988	0.4465443194	0.2088862956	1.972419381	0	0	1.0
7	-10.5868988	0.4465443194	0.2088862956	26.37468147	0	0	1.0
8	-10.5868988	0.4465443194	0.2088862956	33.38265991	0	0	1.0
9	-10.5868988	0.4465443194	0.2088862956	31.11394501	0.05590389296	-0.1657194942	1.0
[right_leg]
6	0.09169664979	-5.593489647	0.06310817599	19.08402252	6.401873112	-14.20989513	1.0
7	0.09169664979	-5.593489647	0.06310817599	19.43604851	19.87403297	-9.662439346	1.0
8	0.09169664979	-5.593489647	0.06310817599	19.53714561	23.7430439	-8.356474876	1.0
9	0.09169664979	-5.593489647	0.06310817599	19.33329773	21.89770889	-9.018133163	1.0
[right_knee]
6	10.69750977	-0.03459574655	-4.718447855e-015	-3.512175e-016	-46.56754684	-6.54753685	1.0
7	10.69750977	-0.03459574655	-4.718447855e-015	-5.681004979e-016	-50.05427551	-6.54753685	1.0
8	10.69750977	-0.03459574655	-4.718447855e-015	-6.303861127e-016	-50.89999008	-6.54753685	1.0
9	10.69750977	-0.03459574655	-4.718447855e-015	-5.318882512e-016	-45.61438751	-6.54753685	1.0
[right_foot]
6	14.54718685	0.01191107463	1.774880243e-010	-37.41418839	0	0	1.0
7	14.54718685	0.01191107463	1.774880243e-010	-35.00940704	0	0	1.0
8	14.54718685	0.01191107463	1.774880243e-010	-34.07724762	0	0	1.0
9	14.54718685	0.01191107463	1.774880243e-010	-35.35613251	0	0	1.0
[EndOfFile]
